# xmcd
#
# Track frame offsets:
# 150
# 12907
# 24072
# 42767
# 55217
# 67462
# 79612
# 102637
# 113512
# 123480
# 136837
# 145987
#
# Disc length: 2113 seconds
#
# Revision: 1
# Processed by: cddbd v1.5.1PL2 Copyright (c) Steve Scherf et al.
# Submitted via: CedeCatalogueitor 2.6.0.6 http://personales.ya.com/cdcatalogueitor
#
DISCID=9f083f0c
DTITLE=The Platters - Only You
DYEAR=1995
DGENRE=
TTITLE0=Twilight Time El Crepusculo
TTITLE1=Smoke Gets In Your Eyes El Humo Ciega Tus Ojos
TTITLE2=Sexteen Tons 16 Toneladas
TTITLE3=Crying In The Chapel Llorando En La Capilla
TTITLE4=Sunday Morning
TTITLE5=With This Ring
TTITLE6=Unchained Melody Melodia Desncandenada
TTITLE7=Red Sails In The Sunset Velas Rojas
TTITLE8=One In A Million
TTITLE9=Enchanted
TTITLE10=Sweet Sweet Loving
TTITLE11=Washed Ashore
EXTD=
EXTT0=
EXTT1=
EXTT2=
EXTT3=
EXTT4=
EXTT5=
EXTT6=
EXTT7=
EXTT8=
EXTT9=
EXTT10=
EXTT11=
PLAYORDER=
